<?xml version="1.0" encoding="UTF-8" standalone="no"?>
<!-- Created with Inkscape (http://www.inkscape.org/) -->

<svg
   width="176.03525mm"
   height="130.1414mm"
   viewBox="0 0 176.03525 130.1414"
   version="1.1"
   id="svg5"
   xmlns:inkscape="http://www.inkscape.org/namespaces/inkscape"
   xmlns:sodipodi="http://sodipodi.sourceforge.net/DTD/sodipodi-0.dtd"
   xmlns:xlink="http://www.w3.org/1999/xlink"
   xmlns="http://www.w3.org/2000/svg"
   xmlns:svg="http://www.w3.org/2000/svg">
  <sodipodi:namedview
     id="namedview7"
     pagecolor="#ffffff"
     bordercolor="#000000"
     borderopacity="0.25"
     inkscape:showpageshadow="2"
     inkscape:pageopacity="0.0"
     inkscape:pagecheckerboard="0"
     inkscape:deskcolor="#d1d1d1"
     inkscape:document-units="mm"
     showgrid="false" />
  <defs
     id="defs2">
    <linearGradient
       inkscape:collect="always"
       id="CC">
      <stop
         style="stop-color:#d0b280;stop-opacity:1;"
         offset="0"
         id="stop3936" />
      <stop
         style="stop-color:#7a6745;stop-opacity:1;"
         offset="1"
         id="stop3938" />
    </linearGradient>
    <linearGradient
       inkscape:collect="always"
       xlink:href="#CC"
       id="linearGradient8496"
       x1="70.897957"
       y1="164.61922"
       x2="70.897957"
       y2="267.56693"
       gradientUnits="userSpaceOnUse"
       gradientTransform="matrix(1.2641509,0,0,1.2641509,-7.5724193,-124.67399)" />
  </defs>
  <g
     inkscape:label="Layer 1"
     inkscape:groupmode="layer"
     id="layer1"
     transform="translate(-16.982377,-83.429295)">
    <path
       id="path7754"
       style="opacity:1;mix-blend-mode:normal;fill:url(#linearGradient8496);fill-opacity:1;stroke-width:0.0176981;paint-order:markers stroke fill"
       d="m 82.05334,83.429295 a 65.070724,65.070724 0 0 0 -65.070963,65.070955 65.070724,65.070724 0 0 0 65.070963,65.07045 65.070724,65.070724 0 0 0 22.9464,-4.21421 65.070724,65.070724 0 0 0 22.94692,4.21421 65.070724,65.070724 0 0 0 65.07096,-65.07045 65.070724,65.070724 0 0 0 -65.07096,-65.070955 65.070724,65.070724 0 0 0 -22.94692,4.19251 65.070724,65.070724 0 0 0 -22.9464,-4.19251 z m 0,32.535485 a 32.535362,32.535362 0 0 1 22.70869,9.25783 l 0.22583,0.22583 a 32.535362,32.535362 0 0 1 0.0119,-0.0108 32.535362,32.535362 0 0 1 0.0124,0.0108 l 0.22583,-0.22583 a 32.535362,32.535362 0 0 1 22.70869,-9.25783 32.535362,32.535362 0 0 1 32.53548,32.53547 32.535362,32.535362 0 0 1 -32.53548,32.53498 32.535362,32.535362 0 0 1 -22.9278,-9.51415 l -0.0191,0.0186 -0.0186,-0.0186 a 32.535362,32.535362 0 0 1 -22.9278,9.51415 32.535362,32.535362 0 0 1 -32.535482,-32.53497 32.535362,32.535362 0 0 1 32.535482,-32.53548 z" />
  </g>
</svg>
